<svg width="212" height="23" viewBox="0 0 212 23" fill="none" xmlns="http://www.w3.org/2000/svg">
<path d="M0 11.8711V11.4844C0 9.78125 0.589844 8.44922 1.76953 7.48828C2.95703 6.52734 4.55859 6.04688 6.57422 6.04688C8.56641 6.04688 10.0859 6.41406 11.1328 7.14844C12.1797 7.88281 12.7227 8.92578 12.7617 10.2773L12.7734 10.5H9.75V10.3477C9.75 9.70703 9.49219 9.21094 8.97656 8.85938C8.46875 8.5 7.70312 8.32031 6.67969 8.32031C5.53125 8.32031 4.65234 8.58203 4.04297 9.10547C3.44141 9.62109 3.14062 10.3867 3.14062 11.4023V11.9531C3.14062 12.9141 3.4375 13.6758 4.03125 14.2383C4.625 14.8008 5.50391 15.082 6.66797 15.082C7.70703 15.082 8.48438 14.9023 9 14.543C9.51562 14.1836 9.77734 13.6797 9.78516 13.0312V12.8672H12.7852V13.1016C12.7617 14.4297 12.2188 15.4648 11.1562 16.207C10.0938 16.9492 8.57422 17.3203 6.59766 17.3203C4.58203 17.3203 2.97656 16.8359 1.78125 15.8672C0.59375 14.8906 0 13.5586 0 11.8711ZM13.073 14.0039C13.073 12.9492 13.5886 12.1055 14.6198 11.4727C15.6511 10.832 17.0183 10.5117 18.7214 10.5117H22.4128V9.69141C22.4128 9.11328 22.198 8.67969 21.7683 8.39062C21.3464 8.09375 20.6433 7.94531 19.6589 7.94531C18.6902 7.94531 17.9636 8.07422 17.4792 8.33203C17.0027 8.58203 16.7644 8.94922 16.7644 9.43359V9.69141L13.8933 9.67969V9.33984C13.8933 8.37891 14.4245 7.59766 15.487 6.99609C16.5573 6.38672 18.0183 6.08203 19.8698 6.08203C21.7292 6.08203 23.1355 6.37109 24.0886 6.94922C25.0417 7.52734 25.5183 8.47656 25.5183 9.79688V14.4727C25.5183 14.9414 25.5612 15.3867 25.6472 15.8086C25.7331 16.2227 25.8659 16.582 26.0456 16.8867V17.0625H23.0339C22.8855 16.8672 22.7644 16.6328 22.6706 16.3594C22.5847 16.0781 22.5222 15.7891 22.4831 15.4922C22.155 15.9531 21.5691 16.3555 20.7253 16.6992C19.8816 17.043 18.823 17.2148 17.5495 17.2148C16.1745 17.2148 15.0847 16.9414 14.28 16.3945C13.4753 15.8477 13.073 15.0508 13.073 14.0039ZM16.1316 13.8047C16.1316 14.3281 16.3581 14.7227 16.8112 14.9883C17.2722 15.2539 17.9519 15.3867 18.8503 15.3867C19.7487 15.3867 20.5652 15.168 21.2995 14.7305C22.0417 14.293 22.4128 13.8008 22.4128 13.2539V12.1758H19.7292C18.5183 12.1758 17.6159 12.3086 17.0222 12.5742C16.4284 12.832 16.1316 13.2422 16.1316 13.8047ZM26.0873 8.66016V6.35156H34.7241V8.66016H26.0873ZM28.4311 13.8281V6.84375L28.5131 6.71484V2.54297H31.478V13.1367C31.478 13.9492 31.6108 14.4688 31.8764 14.6953C32.142 14.9219 32.56 15.0352 33.1303 15.0352C33.3803 15.0352 33.6147 15.0234 33.8334 15C34.0522 14.9688 34.267 14.918 34.478 14.8477V17.0273C34.2514 17.0898 33.9194 17.1484 33.4819 17.2031C33.0522 17.2656 32.5248 17.2969 31.8998 17.2969C30.7905 17.2969 29.935 17.0352 29.3334 16.5117C28.7319 15.9805 28.4311 15.0859 28.4311 13.8281ZM34.8595 14.0039C34.8595 12.9492 35.3752 12.1055 36.4064 11.4727C37.4377 10.832 38.8048 10.5117 40.508 10.5117H44.1994V9.69141C44.1994 9.11328 43.9845 8.67969 43.5548 8.39062C43.133 8.09375 42.4298 7.94531 41.4455 7.94531C40.4767 7.94531 39.7502 8.07422 39.2658 8.33203C38.7892 8.58203 38.5509 8.94922 38.5509 9.43359V9.69141L35.6798 9.67969V9.33984C35.6798 8.37891 36.2111 7.59766 37.2736 6.99609C38.3439 6.38672 39.8048 6.08203 41.6564 6.08203C43.5158 6.08203 44.922 6.37109 45.8752 6.94922C46.8283 7.52734 47.3048 8.47656 47.3048 9.79688V14.4727C47.3048 14.9414 47.3478 15.3867 47.4338 15.8086C47.5197 16.2227 47.6525 16.582 47.8322 16.8867V17.0625H44.8205C44.672 16.8672 44.5509 16.6328 44.4572 16.3594C44.3713 16.0781 44.3088 15.7891 44.2697 15.4922C43.9416 15.9531 43.3556 16.3555 42.5119 16.6992C41.6681 17.043 40.6095 17.2148 39.3361 17.2148C37.9611 17.2148 36.8713 16.9414 36.0666 16.3945C35.2619 15.8477 34.8595 15.0508 34.8595 14.0039ZM37.9181 13.8047C37.9181 14.3281 38.1447 14.7227 38.5978 14.9883C39.0588 15.2539 39.7384 15.3867 40.6369 15.3867C41.5353 15.3867 42.3517 15.168 43.0861 14.7305C43.8283 14.293 44.1994 13.8008 44.1994 13.2539V12.1758H41.5158C40.3048 12.1758 39.4025 12.3086 38.8088 12.5742C38.215 12.832 37.9181 13.2422 37.9181 13.8047ZM48.87 17.0625V0H51.9989V17.0625H48.87ZM52.8844 11.8711V11.4961C52.8844 9.86328 53.5055 8.54688 54.7477 7.54688C55.9977 6.54688 57.6578 6.04688 59.7281 6.04688C61.8063 6.04688 63.4664 6.54688 64.7086 7.54688C65.9508 8.54688 66.5719 9.86328 66.5719 11.4961V11.8711C66.5719 13.5117 65.9508 14.832 64.7086 15.832C63.4664 16.8242 61.8063 17.3203 59.7281 17.3203C57.65 17.3203 55.9898 16.8242 54.7477 15.832C53.5055 14.832 52.8844 13.5117 52.8844 11.8711ZM56.025 11.4141V11.9414C56.025 12.8633 56.3375 13.6172 56.9625 14.2031C57.5953 14.7891 58.5133 15.082 59.7164 15.082C60.9352 15.082 61.857 14.7891 62.482 14.2031C63.1148 13.6172 63.4313 12.8633 63.4313 11.9414V11.4141C63.4313 10.4922 63.1148 9.74609 62.482 9.17578C61.857 8.60547 60.9352 8.32031 59.7164 8.32031C58.5133 8.32031 57.5953 8.60547 56.9625 9.17578C56.3375 9.74609 56.025 10.4922 56.025 11.4141ZM67.4808 21.0234L67.9847 18.8672C68.4222 19.1562 69.0823 19.4219 69.9652 19.6641C70.848 19.9141 71.7777 20.0391 72.7542 20.0391C73.887 20.0391 74.8597 19.7891 75.6722 19.2891C76.4847 18.7969 76.8909 17.9375 76.8909 16.7109V15.375C76.4144 15.9141 75.8089 16.3555 75.0745 16.6992C74.348 17.0352 73.4027 17.2031 72.2386 17.2031C70.598 17.2031 69.2933 16.707 68.3245 15.7148C67.3636 14.7227 66.8831 13.4453 66.8831 11.8828V11.5078C66.8831 9.94531 67.3519 8.65625 68.2894 7.64062C69.2269 6.625 70.5511 6.11719 72.262 6.11719C73.2698 6.11719 74.1839 6.29297 75.0042 6.64453C75.8245 6.99609 76.4456 7.4375 76.8675 7.96875L76.8909 6.35156H79.9378V16.207C79.9378 18.1602 79.3441 19.6484 78.1566 20.6719C76.9691 21.6953 75.3441 22.207 73.2816 22.207C72.0863 22.207 70.9886 22.0898 69.9886 21.8555C68.9886 21.6211 68.1527 21.3438 67.4808 21.0234ZM69.9652 11.8477C69.9652 12.8008 70.2503 13.5742 70.8206 14.168C71.3909 14.7539 72.2894 15.0469 73.5159 15.0469C74.3363 15.0469 75.0355 14.875 75.6136 14.5312C76.1995 14.1797 76.6136 13.7695 76.8558 13.3008V10.043C76.6058 9.58203 76.1917 9.17969 75.6136 8.83594C75.0355 8.48438 74.3363 8.30859 73.5159 8.30859C72.2894 8.30859 71.3909 8.61328 70.8206 9.22266C70.2503 9.83203 69.9652 10.6094 69.9652 11.5547V11.8477ZM81.7139 15.5273C81.7139 15.0352 81.8702 14.6211 82.1827 14.2852C82.503 13.9492 82.9522 13.7812 83.5303 13.7812C84.1162 13.7812 84.5655 13.9492 84.878 14.2852C85.1905 14.6211 85.3467 15.0352 85.3467 15.5273C85.3467 16.0273 85.1905 16.4453 84.878 16.7812C84.5655 17.1172 84.1162 17.2852 83.5303 17.2852C82.9522 17.2852 82.503 17.1172 82.1827 16.7812C81.8702 16.4375 81.7139 16.0195 81.7139 15.5273ZM87.1697 17.0625V6.35156H90.2283L90.2517 8.25H90.24C90.7166 7.51562 91.3455 6.97266 92.1267 6.62109C92.908 6.26172 93.8416 6.08203 94.9275 6.08203C96.2556 6.08203 97.3181 6.43359 98.115 7.13672C98.9197 7.83203 99.322 8.98828 99.322 10.6055V17.0625H96.2166V11.1445C96.2166 10.1758 95.9783 9.48438 95.5017 9.07031C95.0252 8.65625 94.3533 8.44922 93.4861 8.44922C92.7595 8.44922 92.1267 8.63281 91.5877 9C91.0486 9.35938 90.6072 9.82422 90.2634 10.3945V17.0625H87.1697ZM100.114 11.8594V11.4844C100.114 9.83594 100.711 8.51953 101.907 7.53516C103.11 6.55078 104.715 6.05859 106.723 6.05859C108.715 6.05859 110.243 6.52734 111.305 7.46484C112.368 8.40234 112.899 9.69922 112.899 11.3555V12.2344H101.625V10.5586H109.899V10.6406C109.899 9.97656 109.665 9.41406 109.196 8.95312C108.727 8.49219 107.879 8.26172 106.653 8.26172C105.528 8.26172 104.665 8.54297 104.063 9.10547C103.469 9.66797 103.172 10.3633 103.172 11.1914V11.8828C103.172 12.8906 103.489 13.6797 104.122 14.25C104.754 14.8203 105.684 15.1055 106.911 15.1055C107.715 15.1055 108.399 14.9883 108.961 14.7539C109.524 14.5117 109.954 14.1875 110.25 13.7812L112.805 14.6367C112.391 15.4414 111.707 16.0898 110.754 16.582C109.809 17.0742 108.536 17.3203 106.934 17.3203C104.762 17.3203 103.082 16.832 101.895 15.8555C100.707 14.8789 100.114 13.5469 100.114 11.8594ZM113.738 17.0625V6.35156H116.855L116.878 8.10938H116.855C117.277 7.54688 117.82 7.08203 118.484 6.71484C119.148 6.33984 119.925 6.15234 120.816 6.15234C121.058 6.15234 121.3 6.16797 121.542 6.19922C121.784 6.22266 121.952 6.25 122.046 6.28125V8.61328C121.874 8.56641 121.667 8.53125 121.425 8.50781C121.191 8.47656 120.937 8.46094 120.663 8.46094C119.89 8.46094 119.167 8.65625 118.495 9.04688C117.823 9.4375 117.296 9.94922 116.913 10.582V17.0625H113.738ZM121.643 11.8828V11.5078C121.643 9.94531 122.143 8.65625 123.143 7.64062C124.15 6.625 125.482 6.11719 127.139 6.11719C128.24 6.11719 129.166 6.26953 129.916 6.57422C130.674 6.87109 131.275 7.26562 131.721 7.75781V0H134.756V17.0625H131.768L131.744 15.3164H131.768C131.338 15.8555 130.728 16.3203 129.939 16.7109C129.158 17.1016 128.225 17.2969 127.139 17.2969C125.443 17.2969 124.103 16.7852 123.119 15.7617C122.135 14.7383 121.643 13.4453 121.643 11.8828ZM124.783 11.8477C124.783 12.8008 125.068 13.582 125.639 14.1914C126.209 14.8008 127.103 15.1055 128.322 15.1055C129.143 15.1055 129.842 14.9297 130.42 14.5781C130.998 14.2188 131.412 13.8047 131.662 13.3359V9.96094C131.42 9.5 131.006 9.10938 130.42 8.78906C129.842 8.46875 129.143 8.30859 128.322 8.30859C127.096 8.30859 126.197 8.61328 125.627 9.22266C125.064 9.83203 124.783 10.6094 124.783 11.5547V11.8477ZM135.911 13.6289L138.665 13.6523V13.8984C138.665 14.4922 138.942 14.9102 139.497 15.1523C140.051 15.3867 140.801 15.5039 141.747 15.5039C142.676 15.5039 143.38 15.4023 143.856 15.1992C144.34 14.9961 144.583 14.6797 144.583 14.25C144.583 13.8438 144.329 13.5391 143.821 13.3359C143.313 13.125 142.391 12.9102 141.055 12.6914C139.368 12.4102 138.161 12.0039 137.434 11.4727C136.708 10.9414 136.344 10.1992 136.344 9.24609C136.344 8.22266 136.833 7.43359 137.809 6.87891C138.786 6.32422 140.145 6.04688 141.887 6.04688C143.598 6.04688 144.95 6.34766 145.942 6.94922C146.942 7.54297 147.438 8.37109 147.43 9.43359V9.67969H144.676V9.46875C144.676 8.89844 144.43 8.50391 143.938 8.28516C143.446 8.05859 142.735 7.94531 141.805 7.94531C140.938 7.94531 140.301 8.03516 139.895 8.21484C139.489 8.39453 139.286 8.67578 139.286 9.05859C139.286 9.39453 139.516 9.66016 139.977 9.85547C140.438 10.0508 141.329 10.2578 142.649 10.4766C144.376 10.7578 145.649 11.1562 146.469 11.6719C147.29 12.1797 147.7 12.8906 147.7 13.8047C147.7 14.9531 147.2 15.8281 146.2 16.4297C145.208 17.0234 143.747 17.3203 141.817 17.3203C139.919 17.3203 138.465 17.0234 137.458 16.4297C136.45 15.8281 135.934 14.9727 135.911 13.8633V13.6289ZM149.113 15.5273C149.113 15.0352 149.269 14.6211 149.581 14.2852C149.902 13.9492 150.351 13.7812 150.929 13.7812C151.515 13.7812 151.964 13.9492 152.277 14.2852C152.589 14.6211 152.745 15.0352 152.745 15.5273C152.745 16.0273 152.589 16.4453 152.277 16.7812C151.964 17.1172 151.515 17.2852 150.929 17.2852C150.351 17.2852 149.902 17.1172 149.581 16.7812C149.269 16.4375 149.113 16.0195 149.113 15.5273ZM154.568 17.0625V6.35156H157.604L157.627 8.33203H157.615C158.178 7.57422 158.838 7.01172 159.596 6.64453C160.361 6.26953 161.26 6.08203 162.291 6.08203C163.221 6.08203 164.022 6.26562 164.693 6.63281C165.373 7 165.846 7.54297 166.111 8.26172H166.1C166.639 7.55859 167.346 7.01953 168.221 6.64453C169.096 6.26172 170.072 6.07031 171.15 6.07031C172.424 6.07031 173.459 6.41797 174.256 7.11328C175.053 7.80859 175.451 8.96484 175.451 10.582V17.0625H172.334V11.0508C172.318 10.0742 172.084 9.39844 171.631 9.02344C171.186 8.64062 170.541 8.44922 169.697 8.44922C168.986 8.44922 168.373 8.63672 167.857 9.01172C167.342 9.37891 166.908 9.84375 166.557 10.4062V17.0625H163.44V11.0508C163.432 10.082 163.197 9.40625 162.736 9.02344C162.283 8.64062 161.635 8.44922 160.791 8.44922C160.088 8.44922 159.479 8.63672 158.963 9.01172C158.447 9.38672 158.014 9.85547 157.662 10.418V17.0625H154.568ZM176.067 21.9023V19.8281C176.364 19.8828 176.661 19.9219 176.958 19.9453C177.255 19.9766 177.548 19.9922 177.837 19.9922C178.516 20 179.079 19.8086 179.524 19.418C179.977 19.0273 180.47 18.25 181.001 17.0859L175.704 6.35156H178.88L181.915 12.9727C182.04 13.207 182.149 13.4219 182.243 13.6172C182.337 13.8047 182.427 14.0078 182.512 14.2266H182.548C182.634 14.0078 182.723 13.8008 182.817 13.6055C182.911 13.4102 183.016 13.1914 183.134 12.9492L186.391 6.35156H189.345L183.626 17.7773C182.891 19.4023 182.153 20.5391 181.411 21.1875C180.677 21.8438 179.688 22.1719 178.446 22.1719C177.899 22.1719 177.442 22.1484 177.075 22.1016C176.716 22.0625 176.38 21.9961 176.067 21.9023ZM188.484 15.5273C188.484 15.0352 188.64 14.6211 188.953 14.2852C189.273 13.9492 189.722 13.7812 190.3 13.7812C190.886 13.7812 191.335 13.9492 191.648 14.2852C191.96 14.6211 192.117 15.0352 192.117 15.5273C192.117 16.0273 191.96 16.4453 191.648 16.7812C191.335 17.1172 190.886 17.2852 190.3 17.2852C189.722 17.2852 189.273 17.1172 188.953 16.7812C188.64 16.4375 188.484 16.0195 188.484 15.5273ZM193.987 17.0625V6.35156H197.139V17.0625H193.987ZM193.764 2.44922C193.764 1.98828 193.92 1.59766 194.233 1.27734C194.545 0.957031 194.99 0.796875 195.569 0.796875C196.147 0.796875 196.588 0.953125 196.893 1.26562C197.197 1.57813 197.35 1.97266 197.35 2.44922C197.35 2.91016 197.194 3.30469 196.881 3.63281C196.569 3.96094 196.123 4.125 195.545 4.125C194.967 4.125 194.526 3.96094 194.221 3.63281C193.916 3.30469 193.764 2.91016 193.764 2.44922ZM198.071 11.8828V11.5078C198.071 9.94531 198.571 8.65625 199.571 7.64062C200.579 6.625 201.911 6.11719 203.567 6.11719C204.669 6.11719 205.595 6.26953 206.345 6.57422C207.102 6.87109 207.704 7.26562 208.149 7.75781V0H211.185V17.0625H208.196L208.173 15.3164H208.196C207.767 15.8555 207.157 16.3203 206.368 16.7109C205.587 17.1016 204.653 17.2969 203.567 17.2969C201.872 17.2969 200.532 16.7852 199.548 15.7617C198.563 14.7383 198.071 13.4453 198.071 11.8828ZM201.212 11.8477C201.212 12.8008 201.497 13.582 202.067 14.1914C202.638 14.8008 203.532 15.1055 204.751 15.1055C205.571 15.1055 206.27 14.9297 206.849 14.5781C207.427 14.2188 207.841 13.8047 208.091 13.3359V9.96094C207.849 9.5 207.435 9.10938 206.849 8.78906C206.27 8.46875 205.571 8.30859 204.751 8.30859C203.524 8.30859 202.626 8.61328 202.056 9.22266C201.493 9.83203 201.212 10.6094 201.212 11.5547V11.8477Z" fill="white"/>
</svg>
